/* XPM */
static char *fb8f2a531db7454ad980c718905f8e49kFXE7uJbPfzKmkhZ[] = {
/* columns rows colors chars-per-pixel */
"20 20 2 1 ",
"  c #ED1C24",
". c #22B14C",
/* pixels */
"....................",
"....................",
"....................",
"....................",
"........     .......",
"......  .....  .....",
"..... ......... ....",
".... ........... ...",
"... ............. ..",
"... ............. ..",
"... ............. ..",
"... ............. ..",
"... ............. ..",
".... ........... ...",
"..... ......... ....",
"......  .....  .....",
"........     .......",
"....................",
"....................",
"...................."
};
